<?xml version="1.0" encoding="utf-8"?>
<!-- Generator: Adobe Illustrator 16.0.0, SVG Export Plug-In . SVG Version: 6.00 Build 0)  -->
<!DOCTYPE svg PUBLIC "-//W3C//DTD SVG 1.1//EN" "http://www.w3.org/Graphics/SVG/1.1/DTD/svg11.dtd">
<svg version="1.1" id="圖層_1" xmlns="http://www.w3.org/2000/svg" xmlns:xlink="http://www.w3.org/1999/xlink" x="0px" y="0px"
	 width="1440px" height="1440px" viewBox="0 0 1440 1440" enable-background="new 0 0 1440 1440" xml:space="preserve">
<linearGradient id="SVGID_1_" gradientUnits="userSpaceOnUse" x1="-254.002" y1="-254.002" x2="1185.9982" y2="1185.9982">
	<stop  offset="0" style="stop-color:#32679A"/>
	<stop  offset="1" style="stop-color:#1A4582"/>
</linearGradient>
<rect x="0" fill="url(#SVGID_1_)" width="1440" height="1440"/>
<g>
	<g>
		<g>
			<path fill="#F4A11E" d="M381.166,661.536c0-34.703,19.439-54.863,47.663-54.863s47.663,20.304,47.663,54.863
				c0,34.559-19.439,55.727-47.663,55.727S381.166,696.095,381.166,661.536z M454.748,661.536c0-22.896-10.08-36.575-25.919-36.575
				s-25.919,13.68-25.919,36.575c0,22.751,10.08,37.295,25.919,37.295S454.748,684.287,454.748,661.536z"/>
			<path fill="#F4A11E" d="M560.558,715.247l-21.888-40.319h-14.832v40.319h-21.312V608.688h37.151
				c22.32,0,40.031,7.776,40.031,32.256c0,15.983-8.064,25.92-20.304,30.671l24.912,43.632H560.558z M523.839,658.08h13.824
				c13.68,0,21.167-5.76,21.167-17.136c0-11.52-7.488-15.408-21.167-15.408h-13.824V658.08z"/>
			<path fill="#F4A11E" d="M606.263,608.688h29.231c32.543,0,52.703,16.848,52.703,52.848c0,35.855-20.16,53.711-51.551,53.711
				h-30.384V608.688z M634.199,698.111c19.872,0,32.255-10.656,32.255-36.575c0-26.063-12.384-35.855-32.255-35.855h-6.624v72.431
				H634.199z"/>
			<path fill="#F4A11E" d="M714.146,608.688h65.375V626.4h-44.062v24.624h37.438v17.855h-37.438v28.512h45.646v17.855h-66.959
				V608.688z"/>
			<path fill="#F4A11E" d="M864.725,715.247l-21.887-40.319h-14.832v40.319h-21.312V608.688h37.152
				c22.318,0,40.031,7.776,40.031,32.256c0,15.983-8.064,25.92-20.305,30.671l24.912,43.632H864.725z M828.006,658.08h13.824
				c13.68,0,21.166-5.76,21.166-17.136c0-11.52-7.486-15.408-21.166-15.408h-13.824V658.08z"/>
			<path fill="#F4A11E" d="M910.43,608.688h21.312v88.703h43.199v17.855H910.43V608.688z"/>
			<path fill="#F4A11E" d="M1005.412,676.224l-31.967-67.535h22.605l10.656,25.92c3.023,7.92,5.904,15.407,9.217,23.615h0.576
				c3.311-8.208,6.479-15.695,9.504-23.615l10.654-25.92h22.176l-32.111,67.535v39.023h-21.311V676.224z"/>
		</g>
	</g>
	<g>
		<g>
			<path fill="#FFFFFF" d="M407.603,796.354h-16.588v8.529h-3.328v-11.077h19.917v-3.483h-17.628v-2.549h38.949v2.549h-17.94v3.483
				h20.333v11.077h-3.432v-8.529h-16.9v12.013h-3.38V796.354z M426.635,829.531c2.808,0,3.276-0.936,3.588-6.24
				c0.78,0.52,2.028,0.988,3.017,1.145c-0.521,6.292-1.612,7.904-6.396,7.904h-12.221c-5.46,0-7.072-0.937-7.072-4.94v-1.82h-12.064
				v2.756h-3.328v-17.94h34.945v15.185h-16.276v1.872c0,1.716,0.676,2.08,3.952,2.08H426.635z M392.21,805.662
				c3.224-0.416,7.644-1.04,12.325-1.716l0.104,2.236c-4.056,0.832-7.956,1.612-11.388,2.235L392.21,805.662z M394.498,797.602
				c3.38,0.572,7.852,1.769,10.192,2.809l-1.04,2.184c-2.34-1.092-6.708-2.443-10.192-3.067L394.498,797.602z M395.486,812.994
				v3.744h12.064v-3.744H395.486z M407.55,822.979v-3.848h-12.064v3.848H407.55z M423.671,812.994h-12.845v3.744h12.845V812.994z
				 M423.671,822.979v-3.848h-12.845v3.848H423.671z M425.595,808.627c-2.86-0.988-8.112-2.236-12.168-2.809l0.884-2.132
				c3.952,0.468,9.256,1.56,12.116,2.548L425.595,808.627z M425.647,799.422c-3.016,1.248-7.28,2.34-10.348,3.017l-1.248-1.872
				c2.964-0.624,7.488-2.236,10.037-3.172L425.647,799.422z"/>
			<path fill="#FFFFFF" d="M487.892,791.361v3.017h-45.293v-3.017h21.685c-0.52-1.611-1.248-3.535-1.924-5.044l3.172-0.884
				c0.832,1.872,1.768,4.212,2.34,5.928H487.892z M484.979,828.959c0,1.977-0.52,2.809-1.976,3.276
				c-1.508,0.468-4.056,0.468-8.528,0.468c-0.156-0.779-0.624-1.872-1.092-2.652c3.328,0.104,6.396,0.053,7.176,0
				c0.884-0.052,1.196-0.26,1.196-1.092v-23.921h-10.973v3.692c0,1.248,0.156,1.612,1.04,1.612h5.044c0.78,0,2.08-0.052,2.808-0.208
				c0.052,0.832,0.156,1.768,0.26,2.548c-0.624,0.208-1.872,0.26-2.964,0.26h-5.772c-2.964,0-3.536-1.3-3.536-4.264v-3.641h-6.24
				c-0.832,5.564-3.328,8.425-10.556,9.984c-0.26-0.728-1.04-1.819-1.664-2.392c6.24-1.145,8.373-3.328,9.048-7.593h-9.256v27.925
				h-3.328v-30.837h23.973c1.456-2.132,3.172-5.096,4.056-7.228l3.484,0.832c-1.3,2.184-2.808,4.523-4.16,6.396h11.96V828.959z
				 M456.638,794.638c1.145,1.82,2.652,4.316,3.328,5.824l-2.964,1.248c-0.676-1.508-2.132-4.108-3.276-6.032L456.638,794.638z
				 M458.718,826.359v2.443h-3.016v-14.092h18.772v11.648H458.718z M458.718,817.363v6.344h12.845v-6.344H458.718z"/>
			<path fill="#FFFFFF" d="M544.021,822.199h-13.312c3.9,2.808,8.424,6.76,10.712,9.516l-2.964,1.612
				c-0.624-0.884-1.612-1.924-2.704-2.964c-27.405,1.3-29.901,1.404-31.617,2.028c-0.208-0.729-0.676-2.444-1.092-3.38
				c0.78-0.104,1.768-0.677,2.912-1.561c0.884-0.676,3.38-2.756,5.668-5.252h-13.729v-2.809h46.125V822.199z M502.315,803.738h-3.12
				v-10.816h20.021v-3.068h-17.108v-2.652h37.649v2.652h-17.161v3.068h20.177v10.816h-3.276v-8.32h-16.901v14.664h-3.38v-14.664
				h-16.9V803.738z M502.991,808.211c3.328-1.041,8.269-2.809,13.104-4.576l0.468,2.443c-4.264,1.769-8.581,3.536-12.22,4.992
				L502.991,808.211z M537.936,815.438h-34.165v-2.756h34.165V815.438z M505.955,796.822c3.432,0.988,7.904,2.652,10.296,3.796
				l-1.3,2.236c-2.288-1.196-6.761-2.964-10.245-4.057L505.955,796.822z M532.944,827.764c-1.716-1.612-3.64-3.121-5.408-4.369
				l2.288-1.195h-13.572c-2.34,2.443-4.836,4.68-7.229,6.552L532.944,827.764z M537.676,799.214
				c-3.224,1.456-7.956,2.86-11.284,3.589l-1.353-1.977c3.276-0.884,8.112-2.704,10.921-3.952L537.676,799.214z M538.196,810.914
				c-2.912-1.56-8.581-3.744-13.052-5.096l1.248-2.132c4.264,1.248,9.984,3.224,13,4.731L538.196,810.914z"/>
			<path fill="#FFFFFF" d="M571.262,820.119l0.364,3.224c-6.084,1.561-12.428,3.225-17.265,4.421l-0.78-3.328
				c2.6-0.572,5.98-1.404,9.672-2.341c1.248-5.563,2.548-14.872,3.225-21.269l3.016,0.572c-0.884,6.292-2.236,14.508-3.536,20.072
				L571.262,820.119z M571.21,798.746h-17.317v-3.225h17.317V798.746z M557.95,820.587c-0.156-5.148-1.248-12.845-2.34-18.772
				l2.652-0.469c1.248,5.98,2.288,13.573,2.496,18.773L557.95,820.587z M562.578,794.898c-0.624-2.08-2.132-5.356-3.484-7.749
				l2.912-0.936c1.456,2.34,2.964,5.512,3.641,7.54L562.578,794.898z M587.331,807.534c-0.468,1.716-0.988,3.536-1.456,5.044h13.521
				v17.213c0,1.508-0.26,2.288-1.3,2.809c-0.988,0.52-2.393,0.52-4.681,0.52c-0.104-0.832-0.624-1.976-1.04-2.756
				c1.561,0.052,2.964,0.052,3.328,0c0.416,0,0.572-0.156,0.572-0.572v-14.248h-5.096v16.849h-2.808v-16.849h-5.148v16.952h-2.808
				v-16.952h-4.889v17.473h-3.172v-20.438h10.141c0.364-1.56,0.728-3.432,0.988-5.044h-12.844v-3.12h29.901v3.12H587.331z
				 M598.771,800.41h-25.845v-12.064h3.224v8.996h7.645v-11.544h3.328v11.544h8.372v-8.996h3.276V800.41z"/>
			<path fill="#FFFFFF" d="M630.464,810.343c-1.508-1.353-5.616-4.265-8.217-5.98c-1.768,3.068-4.888,6.084-10.452,8.58
				c-0.468-0.728-1.456-1.872-2.236-2.444c6.917-2.756,9.621-6.292,10.713-9.568h-10.245v-2.859h10.816
				c0.104-0.729,0.104-1.404,0.104-2.028v-3.12h-4.68c-1.04,1.82-2.184,3.484-3.38,4.784c-0.624-0.521-1.976-1.353-2.808-1.716
				c2.652-2.601,4.68-6.5,5.928-10.4l3.12,0.624c-0.416,1.3-0.884,2.6-1.456,3.848h14.405v2.86h-7.852v3.172
				c0,0.624,0,1.248-0.104,1.977h9.257v2.859h-9.725c-0.104,0.364-0.26,0.729-0.364,1.093c2.028,1.144,8.112,4.888,9.568,5.928
				L630.464,810.343z M617.671,811.799h31.409v21.112h-3.484v-1.768h-24.545v1.924h-3.38V811.799z M621.052,814.711v5.252h24.545
				v-5.252H621.052z M645.597,828.231v-5.513h-24.545v5.513H645.597z M653.501,790.01v17.681h-17.889V790.01H653.501z
				 M650.121,793.13h-11.232v11.389h11.232V793.13z"/>
			<path fill="#FFFFFF" d="M702.001,812.734h-36.817v-2.34h36.817v-3.276h-32.293v-2.496h35.674v5.772h5.512v2.34h-5.512v5.877
				h-35.985v-2.444h32.605V812.734z M665.184,829.844c2.6-2.185,4.836-5.721,6.084-8.633l2.912,1.248
				c-1.456,3.068-3.484,6.76-6.084,9.152L665.184,829.844z M674.7,800.93h-9.048v-2.392h9.048v-2.652h-7.332v-2.34h7.332v-2.652
				h-8.528v-2.392h8.528v-2.809h3.225v2.809h8.112v2.392h-8.112v2.652h7.384v2.34h-7.384v2.652h8.788v2.392h-8.788v2.912H674.7
				V800.93z M694.409,829.428c2.288,0,2.704-0.572,2.912-4.889c0.78,0.572,2.132,1.04,3.068,1.196
				c-0.416,5.46-1.508,6.708-5.668,6.708H684.06c-5.304,0-6.656-0.884-6.656-4.473v-6.968h3.38v6.968
				c0,1.196,0.52,1.457,3.432,1.457H694.409z M691.185,826.516c-1.56-1.509-4.68-4.057-7.125-5.824l2.288-1.769
				c2.393,1.612,5.513,4.004,7.177,5.564L691.185,826.516z M696.905,801.034h-9.256v-2.392h9.256v-2.757h-7.54v-2.34h7.54v-2.652
				h-8.685v-2.392h8.685v-2.809h3.276v2.809h9.204v2.392h-9.204v2.652h8.424v2.34h-8.424v2.757h10.192v2.392h-10.192v2.808h-3.276
				V801.034z M702.521,820.847c3.224,2.601,7.124,6.345,9.048,8.841l-2.86,1.768c-1.82-2.443-5.616-6.292-8.893-8.944
				L702.521,820.847z"/>
			<path fill="#FFFFFF" d="M731.838,829.479v2.912h-2.705v-15.444c-0.57,0.832-1.092,1.611-1.664,2.235
				c-0.154-0.26-0.52-0.624-0.883-1.04c-0.365,5.2-1.145,10.453-2.756,14.665c-0.572-0.468-1.873-1.196-2.602-1.456
				c2.602-6.969,2.758-16.797,2.758-23.869V789.75c6.447-0.572,14.145-1.664,18.252-3.017l2.6,2.393
				c-4.68,1.403-11.699,2.496-17.889,3.067v2.652h18.564v10.453h-18.564v2.184c0,2.393-0.051,5.2-0.207,8.008
				c1.975-2.651,3.639-6.136,4.627-9.62l2.652,0.729c-0.416,1.352-0.883,2.704-1.508,4.056h5.096c-0.467-1.3-1.195-2.652-1.82-3.848
				l2.342-0.78c0.883,1.404,1.818,3.276,2.34,4.628h5.771v2.444h-6.188v3.017h5.615v2.287h-5.615v3.121h5.771v2.287h-5.771v3.173
				h6.551v2.496H731.838z M726.949,797.602v4.94h15.445v-4.94H726.949z M737.559,813.099h-5.721v3.017h5.721V813.099z
				 M737.559,818.402h-5.721v3.121h5.721V818.402z M737.559,823.811h-5.721v3.173h5.721V823.811z M756.33,825.943
				c-2.131,2.6-5.564,5.46-8.477,7.124c-0.467-0.624-1.559-1.612-2.287-2.185c2.965-1.56,6.188-4.315,7.801-6.5L756.33,825.943z
				 M755.031,796.302c0.26-1.56,0.52-3.432,0.676-5.044h-8.477v-3.068h21.164v3.068h-9.152c-0.416,1.716-0.779,3.536-1.092,5.044
				h8.32v26.365h-17.785v-26.365H755.031z M763.455,799.059H751.65v5.096h11.805V799.059z M763.455,806.807H751.65v5.2h11.805
				V806.807z M763.455,814.658H751.65v5.253h11.805V814.658z M762.311,824.436c2.393,1.871,5.357,4.576,6.76,6.396l-2.65,1.82
				c-1.354-1.872-4.266-4.681-6.656-6.708L762.311,824.436z"/>
			<path fill="#FFFFFF" d="M815.393,799.994c-2.6,3.848-6.293,7.229-10.66,10.036c5.98,2.86,13.104,4.784,20.541,5.824
				c-0.781,0.729-1.613,2.236-2.133,3.173c-2.6-0.364-5.148-0.885-7.592-1.561v15.444h-3.484v-1.716h-21.113v1.768h-3.328v-15.236
				c-2.859,0.885-5.721,1.561-8.527,2.185c-0.312-0.937-1.041-2.288-1.664-3.068c6.916-1.248,14.455-3.588,20.801-6.812
				c-2.756-1.872-5.201-3.952-7.229-6.344c-2.445,1.924-5.201,3.796-8.424,5.356c-0.521-0.78-1.561-1.873-2.342-2.393
				c7.125-3.276,12.17-7.904,14.822-11.908l3.744,0.676c-0.781,1.092-1.561,2.132-2.496,3.225h16.172l0.623-0.156L815.393,799.994z
				 M782.943,799.891h-3.381v-9.465h20.906c-0.678-1.404-1.613-3.016-2.445-4.316l3.328-0.884c1.092,1.508,2.289,3.588,3.121,5.2
				h18.668v9.465h-3.484v-6.24h-36.713V799.891z M814.404,817.154c-4.68-1.3-9.049-3.067-12.949-5.199
				c-3.795,2.08-7.904,3.848-12.168,5.199H814.404z M812.064,828.231v-8.112h-21.113v8.112H812.064z M793.396,801.606
				c2.08,2.548,4.836,4.731,8.111,6.656c3.381-2.028,6.293-4.265,8.529-6.812h-16.434L793.396,801.606z"/>
			<path fill="#FFFFFF" d="M839.957,819.339c-0.572,4.472-1.613,9.412-2.758,12.688c-0.623-0.312-2.08-0.832-2.807-1.092
				c1.248-3.225,2.08-7.853,2.6-12.117L839.957,819.339z M850.201,816.791c-0.156-0.78-0.365-1.82-0.625-2.912
				c-11.18,1.716-12.74,2.08-13.676,2.548c-0.209-0.676-0.729-2.34-1.145-3.224c1.041-0.209,2.289-1.561,3.744-3.433
				c0.832-0.988,2.6-3.276,4.523-6.24c-5.668,0.676-6.76,0.937-7.488,1.3c-0.207-0.728-0.727-2.288-1.039-3.12
				c0.832-0.208,1.768-1.3,2.809-2.912c1.143-1.508,4.836-7.54,6.967-13.208l3.121,1.352c-2.34,4.992-5.148,10.089-8.113,14.041
				l5.67-0.469c1.402-2.235,2.703-4.576,3.848-6.916l3.016,1.769c-3.381,6.032-7.488,12.22-11.701,17.005l8.633-1.145
				c-0.572-1.82-1.195-3.692-1.82-5.305l2.705-0.728c1.404,3.38,2.859,8.009,3.432,10.712L850.201,816.791z M844.949,818.715
				c0.623,3.484,1.248,7.956,1.402,10.973l-2.807,0.52c-0.105-3.016-0.676-7.54-1.301-11.024L844.949,818.715z M849.68,817.415
				c1.094,2.808,2.289,6.448,2.705,8.84l-2.6,0.884c-0.416-2.392-1.613-6.136-2.602-8.943L849.68,817.415z M881.662,828.647v3.172
				h-29.641v-3.172h13.467v-10.349h-10.555v-3.172h24.648v3.172h-10.66v10.349H881.662z M859.613,813.203
				c-1.145-2.705-3.588-6.761-6.293-10.297c2.08-3.172,4.316-7.124,5.512-9.568l3.068,0.832c-1.404,2.6-3.432,5.98-5.148,8.685
				c2.289,3.016,4.629,6.708,5.773,9.101L859.613,813.203z M881.193,791.466H853.84v-3.172h27.354V791.466z M870.949,794.222
				c-1.455,2.601-3.535,5.929-5.305,8.581c2.34,3.016,4.785,6.656,6.033,8.996l-2.861,1.3c-1.248-2.652-3.848-6.708-6.656-10.244
				c2.133-3.12,4.525-7.072,5.67-9.517L870.949,794.222z M877.969,813.203c-1.248-2.705-4.055-6.812-7.02-10.297
				c2.184-3.12,4.629-7.124,5.877-9.568l3.119,0.832c-1.508,2.652-3.691,5.98-5.459,8.685c2.496,2.964,5.096,6.604,6.344,8.944
				L877.969,813.203z"/>
			<path fill="#FFFFFF" d="M909.303,801.555c-1.611-1.301-4.68-3.328-7.332-5.045c-1.871,2.652-4.939,4.473-9.879,5.721
				c-0.262-0.78-1.145-1.924-1.77-2.549c9.102-2.027,10.922-5.771,11.441-13.988h3.068c-0.209,3.328-0.625,6.084-1.561,8.373
				c2.809,1.664,6.293,3.899,8.217,5.252L909.303,801.555z M896.043,793.857c-0.832-1.352-2.652-3.588-4.004-5.252l2.08-1.508
				c1.404,1.561,3.225,3.692,4.107,4.94L896.043,793.857z M934.057,802.438h1.301v9.256h-3.434v-6.448H895.68v6.448h-3.328v-9.256
				h41.289c-2.34-1.716-6.344-4.16-9.932-6.085c-1.82,2.496-4.785,4.316-9.518,5.513c-0.312-0.728-1.145-1.976-1.82-2.601
				c8.789-2.027,10.66-5.771,11.129-13.572h3.225c-0.209,3.225-0.676,5.929-1.613,8.112c3.797,1.925,8.373,4.628,10.869,6.396
				L934.057,802.438z M912.684,817.831c-0.572,1.092-1.145,2.235-1.664,3.224h21.061v11.961h-3.379v-1.456h-28.811v1.508h-3.275
				v-12.013h11.389c0.467-0.936,0.988-2.184,1.404-3.224h-9.465v-9.568h27.977v9.568H912.684z M928.701,823.707h-28.811v5.2h28.811
				V823.707z M903.168,815.387h21.373v-4.68h-21.373V815.387z M912.996,789.386c-1.508,1.872-3.225,3.9-4.629,5.2l-2.08-1.04
				c1.301-1.456,2.965-3.744,3.9-5.304L912.996,789.386z M917.988,793.494c-0.832-1.353-2.652-3.588-4.004-5.2l2.08-1.561
				c1.455,1.612,3.223,3.692,4.107,4.94L917.988,793.494z M935.824,789.334c-1.664,1.924-3.588,4.004-5.148,5.408l-2.184-1.092
				c1.457-1.509,3.381-3.953,4.369-5.513L935.824,789.334z"/>
			<path fill="#FFFFFF" d="M992.822,814.606h-21.529v18.409h-3.535v-18.409h-21.217v-3.432h21.217v-18.513h-18.514v-3.433h40.666
				v3.433h-18.617v18.513h21.529V814.606z M956.057,795.314c2.133,3.796,4.316,8.788,5.096,11.908l-3.275,1.092
				c-0.779-3.068-2.859-8.217-4.889-12.116L956.057,795.314z M977.273,807.586c1.977-3.328,4.473-8.788,5.771-12.584l3.641,1.092
				c-1.871,4.213-4.42,9.309-6.5,12.429L977.273,807.586z"/>
			<path fill="#FFFFFF" d="M1030.77,791.777c5.098,4.421,11.129,10.765,13.834,15.081l-2.965,2.08
				c-0.832-1.353-1.924-2.912-3.275-4.576c-30.213,1.716-33.125,1.82-34.998,2.548c-0.156-0.779-0.729-2.496-1.092-3.38
				c1.039-0.26,2.443-1.404,4.213-3.12c1.818-1.716,8.008-8.32,12.168-14.82l3.379,1.56c-4.264,5.772-8.996,11.284-13.729,15.601
				l27.562-1.352c-2.445-2.756-5.252-5.564-7.801-7.853L1030.77,791.777z M1006.33,811.435h32.865v21.477h-3.641v-2.756h-25.74v2.86
				h-3.484V811.435z M1009.814,814.763v12.064h25.74v-12.064H1009.814z"/>
		</g>
	</g>
</g>
</svg>
